# xmcd CD database file
#
# Track frame offsets:
#	187
#	21072
#	38622
#	60688
#	77298
#	94072
#	116185
#	134570
#	150300
#	165443
#	180147
#
# Disc length: 2687 seconds
#
# Revision: 5
# Processed by: cddbd v1.4PL0 Copyright (c) Steve Scherf et al.
# Submitted via: CDex 1.51
#
DISCID=750a7d0b
DTITLE=Diane Schuur - Talkin' 'bout You
DYEAR=1988
DGENRE=Jazz
TTITLE0=Talkin' 'bout You
TTITLE1=Funny (But I Sill Love You)
TTITLE2=Louisiana Sunday Afternoon
TTITLE3=For Your Love
TTITLE4=Hearts Take Time
TTITLE5=Somethin' Real
TTITLE6=Hard Drivin' Mama 2
TTITLE7=Nothing In The World (Can Make Me Love You More Than I Do)
TTITLE8=Ain't That Love
TTITLE9=Life Goes On
TTITLE10=Cry Me A River
EXTD=YEAR: 1988
EXTT0=
EXTT1=
EXTT2=
EXTT3=
EXTT4=
EXTT5=
EXTT6=
EXTT7=
EXTT8=
EXTT9=
EXTT10=
PLAYORDER=
